<?xml version="1.0" encoding="UTF-8"?>
<svg width="13px" height="13px" viewBox="0 0 13 13" version="1.1" xmlns="http://www.w3.org/2000/svg" xmlns:xlink="http://www.w3.org/1999/xlink">
    <defs></defs>
    <g id="Artboard-2" stroke="none" stroke-width="1" fill="none" fill-rule="evenodd" transform="translate(-392.000000, -206.000000)">
        <path d="M397.958333,206 L397.958333,212.5 L399.041667,212.5 L399.041667,206 L397.958333,206 Z M396.333333,206.372396 C393.813314,207.267415 392,209.675293 392,212.5 C392,216.08431 394.91569,219 398.5,219 C402.08431,219 405,216.08431 405,212.5 C405,209.675293 403.186686,207.267415 400.666667,206.372396 L400.666667,207.540365 C402.577311,208.378255 403.916667,210.284668 403.916667,212.5 C403.916667,215.48763 401.48763,217.916667 398.5,217.916667 C395.51237,217.916667 393.083333,215.48763 393.083333,212.5 C393.083333,210.284668 394.422689,208.378255 396.333333,207.540365 L396.333333,206.372396 Z" id="logout" fill="#696E84" fill-rule="nonzero"></path>
    </g>
</svg>