<?xml version="1.0" encoding="UTF-8"?>
<svg width="72px" height="72px" viewBox="0 0 72 72" version="1.1" xmlns="http://www.w3.org/2000/svg" xmlns:xlink="http://www.w3.org/1999/xlink">
    <defs></defs>
    <g id="Client-Dialogs" stroke="none" stroke-width="1" fill="none" fill-rule="evenodd" transform="translate(-1032.000000, -251.000000)">
        <g id="window-copy-5" transform="translate(904.000000, 139.000000)" fill="#E6EAEE" fill-rule="nonzero">
            <g id="time-icons---free-download--png-and-svg" transform="translate(128.000000, 112.000000)">
                <path d="M36,0 C16.148439,0 0,16.148439 0,36 C0,55.851564 16.148439,72 36,72 C55.851564,72 72,55.851564 72,36 C72,16.148439 55.851564,0 36,0 Z M32.90625,6.1875 C32.941407,6.1875 32.964843,6.1875 33,6.1875 C33.105468,7.757814 34.40625,9 36,9 C37.59375,9 38.894532,7.757814 39,6.1875 C53.214843,7.582032 64.417968,18.785157 65.8125,33 C64.242189,33.105468 63,34.40625 63,36 C63,37.59375 64.242189,38.894532 65.8125,39 C64.417968,53.214843 53.214843,64.417968 39,65.8125 C38.894532,64.242189 37.59375,63 36,63 C34.40625,63 33.105468,64.242189 33,65.8125 C18.785157,64.417968 7.582032,53.214843 6.1875,39 C7.757814,38.894532 9,37.59375 9,36 C9,34.40625 7.757814,33.105468 6.1875,33 C7.582032,18.808593 18.738282,7.617189 32.90625,6.1875 Z M33,15 L33,37.21875 L33.84375,38.15625 L45.84375,50.15625 L50.15625,45.84375 L39,34.6875 L39,15 L33,15 Z" id="Shape"></path>
            </g>
        </g>
    </g>
</svg>