<?xml version="1.0" encoding="UTF-8"?>
<svg width="9px" height="7px" viewBox="0 0 9 7" version="1.1" xmlns="http://www.w3.org/2000/svg" xmlns:xlink="http://www.w3.org/1999/xlink">
    <defs></defs>
    <g id="UI-Kit" stroke="none" stroke-width="1" fill="none" fill-rule="evenodd" transform="translate(-589.000000, -1594.000000)">
        <g id="Input" transform="translate(368.000000, 1515.000000)" fill="#7F8FA4">
            <path d="M229.701299,79.9571429 C229.701299,79.4288 229.272499,79 228.744156,79 C228.479506,79 228.239742,79.1076786 228.066977,79.2809214 L223.958442,83.3894571 L222.634321,82.065337 C222.461557,81.8920942 222.221793,81.7844156 221.957143,81.7844156 C221.4288,81.7844156 221,82.2132156 221,82.7415584 C221,83.0062084 221.107679,83.2454942 221.280921,83.418737 L223.281263,85.4190786 C223.454027,85.5923214 223.693792,85.7 223.958442,85.7 C224.223092,85.7 224.462856,85.5923214 224.63562,85.4190786 L229.420377,80.6343214 C229.59362,80.4610786 229.701299,80.2217929 229.701299,79.9571429 Z" id="Shape"></path>
        </g>
    </g>
</svg>