<svg width="69" height="68" viewBox="0 0 69 68" fill="none" xmlns="http://www.w3.org/2000/svg">
<path d="M0.320007 64.68C0.320007 65.4756 0.636078 66.2387 1.19869 66.8013C1.7613 67.3639 2.52436 67.68 3.32001 67.68H64.66C65.4557 67.68 66.2187 67.3639 66.7813 66.8013C67.3439 66.2387 67.66 65.4756 67.66 64.68V34H61.66V61.68H6.32001V6.34H34V0.339996H3.32001C2.52436 0.339996 1.7613 0.656066 1.19869 1.21868C0.636078 1.78128 0.320007 2.54435 0.320007 3.34V64.68Z" fill="currentcolor"/>
<path d="M19.8774 48.4052C20.4399 48.967 21.2024 49.2825 21.9974 49.2825C22.7924 49.2825 23.5549 48.967 24.1174 48.4052L67.4874 5.04517C68.0173 4.47647 68.3058 3.72428 68.2921 2.94708C68.2783 2.16987 67.9635 1.42833 67.4138 0.87868C66.8642 0.329028 66.1226 0.0141803 65.3454 0.000467388C64.5682 -0.0132455 63.8161 0.275247 63.2474 0.805167L19.8774 44.1652C19.3156 44.7277 19 45.4902 19 46.2852C19 47.0802 19.3156 47.8427 19.8774 48.4052Z" fill="currentcolor"/>
</svg>
