<svg width="90" height="74" viewBox="0 0 90 74" fill="none" xmlns="http://www.w3.org/2000/svg">
<path fill="currentcolor" d="M80 0L69 11C61.5 7.9 53.3 6.1 44.7 6.1C27.2 6.1 11.5 13.2 0 24.6L5 29.6C15.2 19.4 29.2 13.1 44.7 13.1C51.3 13.1 57.7 14.3 63.6 16.4L54.7 25.3C51.5 24.6 48.1 24.2 44.7 24.2C32.2 24.2 20.9 29.3 12.8 37.4L17.8 42.4C24.7 35.4 34.2 31.2 44.7 31.2C46 31.2 47.3 31.3 48.6 31.4L36.5 43.5C32.3 44.8 28.6 47.1 25.5 50.2L27.7 52.4L10.7 69.4L14.4 73.1L83.7 3.8L80 0Z"/>
<path fill="currentcolor" d="M38.3 62.9L43.3 67.9C43.7 67.5 44.2 67.3 44.7 67.3C45.2 67.3 45.7 67.5 46.1 67.9L51.1 62.9C49.5 61.3 47.2 60.3 44.7 60.3C42.2 60.2 40 61.3 38.3 62.9Z"/>
<path fill="currentcolor" d="M44.2 49.2C44.4 49.2 44.5 49.2 44.7 49.2C50.2 49.2 55.2 51.4 58.9 55.1L63.9 50.1C60.3 46.5 55.8 44 50.7 42.8L44.2 49.2Z"/>
<path fill="currentcolor" d="M59.4 34.1C64 36 68.2 38.8 71.7 42.3L76.7 37.3C73.2 33.8 69.2 30.9 64.8 28.7L59.4 34.1Z"/>
<path fill="currentcolor" d="M77.9 15.5L72.8 20.6C77 23.1 81 26.1 84.4 29.5L89.4 24.5C85.9 21.1 82.1 18.1 77.9 15.5Z"/>
</svg>
