<?xml version="1.0" encoding="UTF-8"?>
<svg width="10px" height="10px" viewBox="0 0 10 10" version="1.1" xmlns="http://www.w3.org/2000/svg" xmlns:xlink="http://www.w3.org/1999/xlink">
    <defs></defs>
    <g id="Client-Widgets" stroke="none" stroke-width="1" fill="none" fill-rule="evenodd" transform="translate(-1056.000000, -1918.000000)">
        <g id="window-copy" transform="translate(635.000000, 1868.000000)" fill="#BDC2CF" fill-rule="nonzero">
            <g id="Input" transform="translate(143.000000, 14.000000)">
                <path d="M284.07998,36 C281.922298,36 280.15996,37.7623385 280.15996,39.9200202 C280.15996,40.7468993 280.410529,41.5125285 280.850418,42.1473045 L278,44.9754493 L279.024551,46 L281.852696,43.1495824 C282.487472,43.5894714 283.253101,43.8400405 284.07998,43.8400405 C286.237662,43.8400405 288,42.077702 288,39.9200202 C288,37.7623385 286.237662,36 284.07998,36 Z M284.07998,37.4254619 C285.466465,37.4254619 286.574538,38.5335362 286.574538,39.9200202 C286.574538,41.306505 285.466465,42.4145786 284.07998,42.4145786 C282.693496,42.4145786 281.585421,41.306505 281.585421,39.9200202 C281.585421,38.5335362 282.693496,37.4254619 284.07998,37.4254619 Z" id="search"></path>
            </g>
        </g>
    </g>
</svg>