<?xml version="1.0" encoding="UTF-8"?>
<svg width="10px" height="10px" viewBox="0 0 10 10" version="1.1" xmlns="http://www.w3.org/2000/svg" xmlns:xlink="http://www.w3.org/1999/xlink">
    <defs></defs>
    <g id="Client-Widgets" stroke="none" stroke-width="1" fill="none" fill-rule="evenodd" transform="translate(-1056.000000, -1918.000000)">
        <g id="window-copy" transform="translate(635.000000, 1868.000000)" fill="#BDC2CF" fill-rule="nonzero">
            <g id="Input" transform="translate(143.000000, 14.000000)">
                <g id="Group-16" transform="translate(126.000000, 28.000000)">
                    <path d="M158.07998,8 C155.922298,8 154.15996,9.76233847 154.15996,11.9200202 C154.15996,12.7468993 154.410529,13.5125285 154.850418,14.1473045 L152,16.9754493 L153.024551,18 L155.852696,15.1495824 C156.487472,15.5894714 157.253101,15.8400405 158.07998,15.8400405 C160.237662,15.8400405 162,14.077702 162,11.9200202 C162,9.76233847 160.237662,8 158.07998,8 Z M158.07998,9.42546191 C159.466465,9.42546191 160.574538,10.5335362 160.574538,11.9200202 C160.574538,13.306505 159.466465,14.4145786 158.07998,14.4145786 C156.693496,14.4145786 155.585421,13.306505 155.585421,11.9200202 C155.585421,10.5335362 156.693496,9.42546191 158.07998,9.42546191 Z" id="search"></path>
                </g>
            </g>
        </g>
    </g>
</svg>