<?xml version="1.0" encoding="UTF-8"?>
<svg width="8px" height="8px" viewBox="0 0 8 8" version="1.1" xmlns="http://www.w3.org/2000/svg" xmlns:xlink="http://www.w3.org/1999/xlink">
    <desc>Created with Sketch.</desc>
    <defs></defs>
    <g id="Page-3" stroke="none" stroke-width="1" fill="none" fill-rule="evenodd">
        <path d="M5.13114344,4 C5.13114344,4 7.64221789,6.51107445 7.76541173,6.63426829 C8.07819609,6.94705265 8.07819609,7.45342733 7.76541173,7.76541173 C7.45262737,8.07819609 6.94625269,8.07819609 6.63426829,7.76541173 C6.51107445,7.64301785 4,5.13114344 4,5.13114344 C4,5.13114344 1.48892555,7.64221789 1.36573171,7.76541173 C1.05294735,8.07819609 0.546572671,8.07819609 0.234588271,7.76541173 C-0.0781960902,7.45262737 -0.0781960902,6.94625269 0.234588271,6.63426829 C0.356982151,6.51107445 2.86885656,4 2.86885656,4 C2.86885656,4 0.357782111,1.48892555 0.234588271,1.36573171 C-0.0781960902,1.05294735 -0.0781960902,0.546572671 0.234588271,0.234588271 C0.547372631,-0.0781960902 1.05374731,-0.0781960902 1.36573171,0.234588271 C1.48892555,0.356982151 4,2.86885656 4,2.86885656 C4,2.86885656 6.51107445,0.357782111 6.63426829,0.234588271 C6.94705265,-0.0781960902 7.45342733,-0.0781960902 7.76541173,0.234588271 C8.07819609,0.547372631 8.07819609,1.05374731 7.76541173,1.36573171 C7.64301785,1.48892555 5.13114344,4 5.13114344,4 Z" id="no" fill="#DF2B41" fill-rule="nonzero"></path>
    </g>
</svg>