<?xml version="1.0" encoding="UTF-8"?>
<svg width="18px" height="16px" viewBox="0 0 18 16" version="1.1" xmlns="http://www.w3.org/2000/svg" xmlns:xlink="http://www.w3.org/1999/xlink">
    <!-- Generator: sketchtool 51 (57462) - http://www.bohemiancoding.com/sketch -->
    <desc>Created with sketchtool.</desc>
    <defs></defs>
    <g id="Page-3" stroke="none" stroke-width="1" fill="none" fill-rule="evenodd">
        <g id="Order-Book-Vertical" transform="translate(-1470.000000, -283.000000)">
            <rect fill="transparent" x="0" y="0" width="1723" height="1529"></rect>
            <path d="M1470,285 L1470,297 C1470,298.104569 1470.89543,299 1472,299 L1486,299 C1487.10457,299 1488,298.104569 1488,297 L1488,285 C1488,283.895431 1487.10457,283 1486,283 L1472,283 C1470.89543,283 1470,283.895431 1470,285 Z M1484.25,291.8 L1480.75,291.8 C1480.33579,291.8 1480,291.464214 1480,291.05 L1480,291.05 C1480,290.635786 1480.33579,290.3 1480.75,290.3 L1484.25,290.3 C1484.66421,290.3 1485,290.635786 1485,291.05 L1485,291.05 C1485,291.464214 1484.66421,291.8 1484.25,291.8 Z M1484.25,288.5 L1480.75,288.5 C1480.33579,288.5 1480,288.164214 1480,287.75 L1480,287.75 C1480,287.335786 1480.33579,287 1480.75,287 L1484.25,287 C1484.66421,287 1485,287.335786 1485,287.75 L1485,287.75 C1485,288.164214 1484.66421,288.5 1484.25,288.5 Z M1484.25,295.1 L1480.75,295.1 C1480.33579,295.1 1480,294.764214 1480,294.35 C1480,293.935786 1480.33579,293.6 1480.75,293.6 L1484.25,293.6 C1484.66421,293.6 1485,293.935786 1485,294.35 C1485,294.764214 1484.66421,295.1 1484.25,295.1 Z M1478,295.666667 C1478,295.756945 1477.96908,295.835069 1477.90723,295.901042 C1477.84538,295.967014 1477.77214,296 1477.6875,296 L1473.3125,296 C1473.22786,296 1473.15462,295.967014 1473.09277,295.901042 C1473.03092,295.835069 1473,295.756945 1473,295.666667 C1473,295.576388 1473.03092,295.498264 1473.09277,295.432292 L1475.28027,293.098958 C1475.34212,293.032986 1475.41536,293 1475.5,293 C1475.58464,293 1475.65788,293.032986 1475.71973,293.098958 L1477.90723,295.432292 C1477.96908,295.498264 1478,295.576388 1478,295.666667 Z M1478,286.333333 C1478,286.423612 1477.96908,286.501736 1477.90723,286.567708 L1475.71973,288.901042 C1475.65788,288.967014 1475.58464,289 1475.5,289 C1475.41536,289 1475.34212,288.967014 1475.28027,288.901042 L1473.09277,286.567708 C1473.03092,286.501736 1473,286.423612 1473,286.333333 C1473,286.243055 1473.03092,286.164931 1473.09277,286.098958 C1473.15462,286.032986 1473.22786,286 1473.3125,286 L1477.6875,286 C1477.77214,286 1477.84538,286.032986 1477.90723,286.098958 C1477.96908,286.164931 1478,286.243055 1478,286.333333 Z" id="view_1" fill="#BDC2CF" fill-rule="nonzero"></path>
        </g>
    </g>
</svg>
