<?xml version="1.0" encoding="UTF-8"?>
<svg width="18px" height="16px" viewBox="0 0 18 16" version="1.1" xmlns="http://www.w3.org/2000/svg" xmlns:xlink="http://www.w3.org/1999/xlink">
    <!-- Generator: sketchtool 51 (57462) - http://www.bohemiancoding.com/sketch -->
    <desc>Created with sketchtool.</desc>
    <defs></defs>
    <g id="Page-3" stroke="none" stroke-width="1" fill="none" fill-rule="evenodd">
        <g id="Order-Book-Vertical" transform="translate(-1516.000000, -283.000000)">
            <rect fill="transparent" x="0" y="0" width="1723" height="1529"></rect>
            <path d="M1516,285 L1516,297 C1516,298.104569 1516.89543,299 1518,299 L1532,299 C1533.10457,299 1534,298.104569 1534,297 L1534,285 C1534,283.895431 1533.10457,283 1532,283 L1518,283 C1516.89543,283 1516,283.895431 1516,285 Z M1530.25,291.8 L1526.75,291.8 C1526.33579,291.8 1526,291.464214 1526,291.05 L1526,291.05 C1526,290.635786 1526.33579,290.3 1526.75,290.3 L1530.25,290.3 C1530.66421,290.3 1531,290.635786 1531,291.05 L1531,291.05 C1531,291.464214 1530.66421,291.8 1530.25,291.8 Z M1530.25,288.5 L1526.75,288.5 C1526.33579,288.5 1526,288.164214 1526,287.75 L1526,287.75 C1526,287.335786 1526.33579,287 1526.75,287 L1530.25,287 C1530.66421,287 1531,287.335786 1531,287.75 L1531,287.75 C1531,288.164214 1530.66421,288.5 1530.25,288.5 Z M1530.25,295.1 L1519.75,295.1 C1519.33579,295.1 1519,294.764214 1519,294.35 C1519,293.935786 1519.33579,293.6 1519.75,293.6 L1530.25,293.6 C1530.66421,293.6 1531,293.935786 1531,294.35 C1531,294.764214 1530.66421,295.1 1530.25,295.1 Z M1524,286.333333 C1524,286.423612 1523.96908,286.501736 1523.90723,286.567708 L1521.71973,288.901042 C1521.65788,288.967014 1521.58464,289 1521.5,289 C1521.41536,289 1521.34212,288.967014 1521.28027,288.901042 L1519.09277,286.567708 C1519.03092,286.501736 1519,286.423612 1519,286.333333 C1519,286.243055 1519.03092,286.164931 1519.09277,286.098958 C1519.15462,286.032986 1519.22786,286 1519.3125,286 L1523.6875,286 C1523.77214,286 1523.84538,286.032986 1523.90723,286.098958 C1523.96908,286.164931 1524,286.243055 1524,286.333333 Z" id="view_3" fill="#BDC2CF" fill-rule="nonzero"></path>
        </g>
    </g>
</svg>
