<?xml version="1.0" encoding="UTF-8"?>
<svg width="18px" height="16px" viewBox="0 0 18 16" version="1.1" xmlns="http://www.w3.org/2000/svg" xmlns:xlink="http://www.w3.org/1999/xlink">
    <!-- Generator: sketchtool 51 (57462) - http://www.bohemiancoding.com/sketch -->
    <desc>Created with sketchtool.</desc>
    <defs></defs>
    <g id="Page-3" stroke="none" stroke-width="1" fill="none" fill-rule="evenodd">
        <g id="Order-Book-Vertical" transform="translate(-1493.000000, -283.000000)">
            <rect fill="transparent" x="0" y="0" width="1723" height="1529"></rect>
            <path d="M1493,285 L1493,297 C1493,298.104569 1493.89543,299 1495,299 L1509,299 C1510.10457,299 1511,298.104569 1511,297 L1511,285 C1511,283.895431 1510.10457,283 1509,283 L1495,283 C1493.89543,283 1493,283.895431 1493,285 Z M1507.25,291.8 L1503.75,291.8 C1503.33579,291.8 1503,291.464214 1503,291.05 L1503,291.05 C1503,290.635786 1503.33579,290.3 1503.75,290.3 L1507.25,290.3 C1507.66421,290.3 1508,290.635786 1508,291.05 L1508,291.05 C1508,291.464214 1507.66421,291.8 1507.25,291.8 Z M1507.25,288.5 L1496.75,288.5 C1496.33579,288.5 1496,288.164214 1496,287.75 L1496,287.75 C1496,287.335786 1496.33579,287 1496.75,287 L1507.25,287 C1507.66421,287 1508,287.335786 1508,287.75 L1508,287.75 C1508,288.164214 1507.66421,288.5 1507.25,288.5 Z M1507.25,295.1 L1503.75,295.1 C1503.33579,295.1 1503,294.764214 1503,294.35 C1503,293.935786 1503.33579,293.6 1503.75,293.6 L1507.25,293.6 C1507.66421,293.6 1508,293.935786 1508,294.35 C1508,294.764214 1507.66421,295.1 1507.25,295.1 Z M1501,295.666667 C1501,295.756945 1500.96908,295.835069 1500.90723,295.901042 C1500.84538,295.967014 1500.77214,296 1500.6875,296 L1496.3125,296 C1496.22786,296 1496.15462,295.967014 1496.09277,295.901042 C1496.03092,295.835069 1496,295.756945 1496,295.666667 C1496,295.576388 1496.03092,295.498264 1496.09277,295.432292 L1498.28027,293.098958 C1498.34212,293.032986 1498.41536,293 1498.5,293 C1498.58464,293 1498.65788,293.032986 1498.71973,293.098958 L1500.90723,295.432292 C1500.96908,295.498264 1501,295.576388 1501,295.666667 Z" id="view_2" fill="#BDC2CF" fill-rule="nonzero"></path>
        </g>
    </g>
</svg>
