<?xml version="1.0" encoding="UTF-8"?>
<svg width="12px" height="14px" viewBox="0 0 12 14" version="1.1" xmlns="http://www.w3.org/2000/svg" xmlns:xlink="http://www.w3.org/1999/xlink">
    <!-- Generator: Sketch 48.2 (47327) - http://www.bohemiancoding.com/sketch -->
    <desc>Created with Sketch.</desc>
    <defs></defs>
    <g id="Client-Pages-2" stroke="none" stroke-width="1" fill="none" fill-rule="evenodd" transform="translate(-420.000000, -749.000000)">
        <g id="window" transform="translate(65.000000, 99.000000)" fill="#FFFFFF" fill-rule="nonzero">
            <g id="ip-masks" transform="translate(24.000000, 567.000000)">
                <g id="button-confirm" transform="translate(321.000000, 74.000000)">
                    <g id="trash-icons---free-download--png-and-svg" transform="translate(10.000000, 9.000000)">
                        <path d="M4.5,0 C4.10742225,0 3.7060545,0.142795333 3.421875,0.4375 C3.1376955,0.732204667 3,1.14843789 3,1.55555556 L3,2.33333333 L0,2.33333333 L0,3.88888889 L0.75,3.88888889 L0.75,11.6666667 C0.75,12.9457463 1.76660175,14 3,14 L9,14 C10.2333983,14 11.25,12.9457463 11.25,11.6666667 L11.25,3.88888889 L12,3.88888889 L12,2.33333333 L9,2.33333333 L9,1.55555556 C9,1.14843789 8.8623045,0.732204667 8.578125,0.4375 C8.2939455,0.142795333 7.8925785,0 7.5,0 L4.5,0 Z M4.5,1.55555556 L7.5,1.55555556 L7.5,2.33333333 L4.5,2.33333333 L4.5,1.55555556 Z M2.25,3.88888889 L9.75,3.88888889 L9.75,11.6666667 C9.75,12.0980907 9.416016,12.4444444 9,12.4444444 L3,12.4444444 C2.58398475,12.4444444 2.25,12.0980907 2.25,11.6666667 L2.25,3.88888889 Z M3.75,5.44444444 L3.75,10.8888889 L5.25,10.8888889 L5.25,5.44444444 L3.75,5.44444444 Z M6.75,5.44444444 L6.75,10.8888889 L8.25,10.8888889 L8.25,5.44444444 L6.75,5.44444444 Z" id="Shape"></path>
                    </g>
                </g>
            </g>
        </g>
    </g>
</svg>