<?xml version="1.0" encoding="UTF-8"?>
<svg width="20px" height="17px" viewBox="0 0 20 17" version="1.1" xmlns="http://www.w3.org/2000/svg" xmlns:xlink="http://www.w3.org/1999/xlink">
    <defs></defs>
    <g id="Users" stroke="none" stroke-width="1" fill="none" fill-rule="evenodd" transform="translate(-22.000000, -474.000000)">
        <g id="Group-5" fill="#7E849E" fill-rule="nonzero">
            <path d="M30.4615385,474 C30.0588946,474 29.6472354,474.1357 29.3557692,474.415761 C29.0643031,474.695822 28.9230769,475.091373 28.9230769,475.478261 L28.9230769,476.217391 L22,476.217391 L22,491 L42,491 L42,476.217391 L35.0769231,476.217391 L35.0769231,475.478261 C35.0769231,475.091373 34.9356969,474.695822 34.6442308,474.415761 C34.3527646,474.1357 33.9411062,474 33.5384615,474 L30.4615385,474 Z M30.4615385,475.478261 L33.5384615,475.478261 L33.5384615,476.217391 L30.4615385,476.217391 L30.4615385,475.478261 Z M23.5384615,477.695652 L40.4615385,477.695652 L40.4615385,482.130435 C40.4615385,483.011039 39.8395431,483.608696 38.9230769,483.608696 L25.0769231,483.608696 C24.1604569,483.608696 23.5384615,483.011039 23.5384615,482.130435 L23.5384615,477.695652 Z M26.6153846,480.652174 L26.6153846,482.869565 L28.1538462,482.869565 L28.1538462,480.652174 L26.6153846,480.652174 Z M35.8461538,480.652174 L35.8461538,482.869565 L37.3846154,482.869565 L37.3846154,480.652174 L35.8461538,480.652174 Z M23.5384615,484.671196 C23.9921877,484.922385 24.5150238,485.086957 25.0769231,485.086957 L38.9230769,485.086957 C39.4849762,485.086957 40.0078123,484.922385 40.4615385,484.671196 L40.4615385,489.521739 L23.5384615,489.521739 L23.5384615,484.671196 Z" id="accounts"></path>
        </g>
    </g>
</svg>