<?xml version="1.0" encoding="UTF-8"?>
<svg width="20px" height="17px" viewBox="0 0 20 17" version="1.1" xmlns="http://www.w3.org/2000/svg" xmlns:xlink="http://www.w3.org/1999/xlink">
    <defs></defs>
    <g id="System-Stats-Calendar" stroke="none" stroke-width="1" fill="none" fill-rule="evenodd" transform="translate(-23.000000, -361.000000)">
        <g id="Group-5" fill="#7E849E" fill-rule="nonzero">
            <g id="article-icons---free-download--png-and-svg" transform="translate(23.000000, 361.000000)">
                <path d="M0,0 L0,13.9090909 C0,15.617543 1.37620231,17 3.07692308,17 L16.9230769,17 C18.6237985,17 20,15.617543 20,13.9090909 L20,5.40909091 L15.3846154,5.40909091 L15.3846154,0 L0,0 Z M1.53846154,1.54545455 L13.8461538,1.54545455 L13.8461538,13.9090909 C13.8461538,14.4735442 14.0174277,14.9987569 14.2788462,15.4545455 L3.07692308,15.4545455 C2.16045692,15.4545455 1.53846154,14.8297228 1.53846154,13.9090909 L1.53846154,1.54545455 Z M3.07692308,3.09090909 L3.07692308,6.95454545 L12.3076923,6.95454545 L12.3076923,3.09090909 L3.07692308,3.09090909 Z M4.61538462,4.63636364 L10.7692308,4.63636364 L10.7692308,5.40909091 L4.61538462,5.40909091 L4.61538462,4.63636364 Z M15.3846154,6.95454545 L18.4615385,6.95454545 L18.4615385,13.9090909 C18.4615385,14.8297228 17.8395431,15.4545455 16.9230769,15.4545455 C16.0066108,15.4545455 15.3846154,14.8297228 15.3846154,13.9090909 L15.3846154,6.95454545 Z M3.07692308,7.72727273 L3.07692308,9.27272727 L6.92307692,9.27272727 L6.92307692,7.72727273 L3.07692308,7.72727273 Z M8.46153846,7.72727273 L8.46153846,9.27272727 L12.3076923,9.27272727 L12.3076923,7.72727273 L8.46153846,7.72727273 Z M3.07692308,10.0454545 L3.07692308,11.5909091 L6.92307692,11.5909091 L6.92307692,10.0454545 L3.07692308,10.0454545 Z M8.46153846,10.0454545 L8.46153846,11.5909091 L12.3076923,11.5909091 L12.3076923,10.0454545 L8.46153846,10.0454545 Z M3.07692308,12.3636364 L3.07692308,13.9090909 L6.92307692,13.9090909 L6.92307692,12.3636364 L3.07692308,12.3636364 Z M8.46153846,12.3636364 L8.46153846,13.9090909 L12.3076923,13.9090909 L12.3076923,12.3636364 L8.46153846,12.3636364 Z" id="Shape"></path>
            </g>
        </g>
    </g>
</svg>