<?xml version="1.0" encoding="UTF-8"?>
<svg width="25px" height="20px" viewBox="0 0 25 20" version="1.1" xmlns="http://www.w3.org/2000/svg" xmlns:xlink="http://www.w3.org/1999/xlink">
    <defs></defs>
    <g id="Client-Trade-Page-Example" stroke="none" stroke-width="1" fill="none" fill-rule="evenodd" transform="translate(-18.000000, -17.000000)">
        <g id="Group-13" fill="#fff" fill-rule="nonzero">
            <g id="Group">
                <path d="M18.47197,19.3976406 C17.519111,18.6762994 18.1119576,16.9485707 19.3328694,17.0086825 C26.7092115,16.9970479 34.0875103,17.0086825 41.4638524,17.0028652 C41.9158246,16.977657 42.4049719,17.1172715 42.6925906,17.4818203 C43.1504325,18.0305826 43.1015178,18.9652237 42.514541,19.4073361 C40.5540383,20.8228714 38.5407078,22.1744167 36.5939013,23.6093429 C34.8975383,27.5437553 33.3811815,31.5673659 31.7200371,35.5211693 C31.2348029,36.5062267 29.6538786,36.4538713 29.2371251,35.4377884 C27.6307652,31.4975587 26.0459277,27.5495726 24.4454376,23.6074038 C22.4516729,22.2073812 20.4559517,20.8092977 18.47197,19.3976406 Z M18.9043763,18.8236702 C20.8061812,20.2236927 22.7745102,21.5345172 24.6782717,22.9306616 C26.358982,21.1990547 28.0025171,19.4306052 29.6851841,17.7009374 C26.2357169,17.6989983 22.7842931,17.6912419 19.334826,17.7048156 C18.7928507,17.6951201 18.4406646,18.4765732 18.9043763,18.8236702 Z M31.3169796,17.6989983 C32.9918202,19.4364224 34.651008,21.1912984 36.3180222,22.9345398 C38.2198272,21.5383954 40.1861995,20.22951 42.0880045,18.8333656 C42.5673689,18.4862686 42.209313,17.6757292 41.6497284,17.7028765 C38.206131,17.6912419 34.760577,17.6989983 31.3169796,17.6989983 Z M25.2730749,23.351444 C26.91661,24.4644813 28.5229699,25.6298741 30.1488958,26.7700587 C30.1410694,23.9215363 30.143026,21.074953 30.1488958,18.2264306 C28.5210133,19.9347684 26.8950875,21.6411671 25.2730749,23.351444 Z M30.8395718,18.2186743 C30.8493548,21.0710748 30.8473982,23.9254145 30.8415284,26.777815 C32.4713674,25.6356913 34.0796839,24.4664204 35.7271322,23.3533831 C34.1051196,21.6353498 32.473324,19.9270121 30.8395718,18.2186743 Z M25.505909,24.3423187 C26.8266069,27.5902935 28.1394784,30.8440855 29.4543065,34.0959385 C29.6499654,34.5729545 29.7967097,35.0848741 30.1312864,35.4901438 C30.1625919,32.870434 30.133243,30.2507242 30.1469392,27.6310144 C28.6051467,26.5276725 27.035962,25.4611733 25.505909,24.3423187 Z M30.843485,27.6368316 C30.8552245,30.2565414 30.8297889,32.8781904 30.8571811,35.4979002 C31.2621951,35.0189451 31.4050262,34.3964974 31.6515564,33.8341614 C32.9370357,30.6889584 34.1775134,27.5263035 35.4923415,24.392735 C33.9133738,25.4320869 32.397017,26.560637 30.843485,27.6368316 Z" id="logo"></path>
            </g>
        </g>
    </g>
</svg>