<?xml version="1.0" encoding="UTF-8"?>
<svg width="20px" height="20px" viewBox="0 0 20 20" version="1.1" xmlns="http://www.w3.org/2000/svg" xmlns:xlink="http://www.w3.org/1999/xlink">
    <defs></defs>
    <g id="Users" stroke="none" stroke-width="1" fill="none" fill-rule="evenodd" transform="translate(-22.000000, -418.000000)">
        <g id="Group-5" fill="#7E849E" fill-rule="nonzero">
            <path d="M27.3846154,418 L27.3846154,419.538462 L28.9230769,419.538462 L28.9230769,418 L27.3846154,418 Z M35.0769231,418 L35.0769231,419.538462 L36.6153846,419.538462 L36.6153846,418 L35.0769231,418 Z M27.3846154,421.076923 L27.3846154,422.615385 L28.9230769,422.615385 L28.9230769,421.076923 L27.3846154,421.076923 Z M35.0769231,421.076923 L35.0769231,422.615385 L36.6153846,422.615385 L36.6153846,421.076923 L35.0769231,421.076923 Z M40.5817308,421.413462 L37.9615385,425.331731 L34.7884615,422.783654 L34.1153846,422.254808 L33.6586538,422.975962 L30.2451923,428.456731 L26.2788462,425.8125 L25.6778846,425.427885 L25.2451923,425.980769 L22.1682692,429.826923 L23.3701923,430.788462 L25.9903846,427.495192 L30.0288462,430.1875 L30.7019231,430.620192 L31.1105769,429.947115 L34.5,424.514423 L37.6730769,427.0625 L38.3221154,427.591346 L38.8028846,426.894231 L41.8798077,422.278846 L40.5817308,421.413462 Z M27.3846154,424.153846 L27.3846154,425.692308 L28.9230769,425.692308 L28.9230769,424.153846 L27.3846154,424.153846 Z M35.0769231,427.230769 L35.0769231,428.769231 L36.6153846,428.769231 L36.6153846,427.230769 L35.0769231,427.230769 Z M27.3846154,430.307692 L27.3846154,431.846154 L28.9230769,431.846154 L28.9230769,430.307692 L27.3846154,430.307692 Z M35.0769231,430.307692 L35.0769231,431.846154 L36.6153846,431.846154 L36.6153846,430.307692 L35.0769231,430.307692 Z M27.3846154,433.384615 L27.3846154,434.923077 L28.9230769,434.923077 L28.9230769,433.384615 L27.3846154,433.384615 Z M35.0769231,433.384615 L35.0769231,434.923077 L36.6153846,434.923077 L36.6153846,433.384615 L35.0769231,433.384615 Z M22,436.461538 L22,438 L42,438 L42,436.461538 L22,436.461538 Z" id="markets"></path>
        </g>
    </g>
</svg>