<?xml version="1.0" encoding="UTF-8"?>
<svg width="20px" height="20px" viewBox="0 0 20 20" version="1.1" xmlns="http://www.w3.org/2000/svg" xmlns:xlink="http://www.w3.org/1999/xlink">
    <defs></defs>
    <g id="Users" stroke="none" stroke-width="1" fill="none" fill-rule="evenodd" transform="translate(-21.000000, -248.000000)">
        <g id="Group-5" fill="#7E849E" fill-rule="nonzero">
            <path d="M28.8365385,248 L28.7163462,248.625 L28.2596154,250.908654 C27.5264423,251.197115 26.8653846,251.602765 26.2644231,252.086538 L24.0288462,251.317308 L23.4278846,251.125 L23.1153846,251.677885 L21.5769231,254.322115 L21.2644231,254.875 L21.7211538,255.283654 L23.4519231,256.798077 C23.3888223,257.191707 23.3076923,257.585337 23.3076923,258 C23.3076923,258.414664 23.3888223,258.808293 23.4519231,259.201923 L21.7211538,260.716346 L21.2644231,261.125 L21.5769231,261.677885 L23.1153846,264.322115 L23.4278846,264.875 L24.0288462,264.682692 L26.2644231,263.913462 C26.8653846,264.397235 27.5264423,264.802885 28.2596154,265.091346 L28.7163462,267.375 L28.8365385,268 L33.1634615,268 L33.2836538,267.375 L33.7403846,265.091346 C34.4735577,264.802885 35.1346154,264.397235 35.7355769,263.913462 L37.9711538,264.682692 L38.5721154,264.875 L38.8846154,264.322115 L40.4230769,261.677885 L40.7355769,261.125 L40.2788462,260.716346 L38.5480769,259.201923 C38.6111777,258.808293 38.6923077,258.414664 38.6923077,258 C38.6923077,257.585337 38.6111777,257.191707 38.5480769,256.798077 L40.2788462,255.283654 L40.7355769,254.875 L40.4230769,254.322115 L38.8846154,251.677885 L38.5721154,251.125 L37.9711538,251.317308 L35.7355769,252.086538 C35.1346154,251.602765 34.4735577,251.197115 33.7403846,250.908654 L33.2836538,248.625 L33.1634615,248 L28.8365385,248 Z M30.0865385,249.538462 L31.9134615,249.538462 L32.2980769,251.533654 L32.3942308,251.990385 L32.8269231,252.134615 C33.7013223,252.408053 34.4945915,252.870793 35.1586538,253.480769 L35.4951923,253.793269 L35.9278846,253.649038 L37.875,252.975962 L38.7884615,254.538462 L37.25,255.908654 L36.8894231,256.197115 L37.0096154,256.653846 C37.1087738,257.092548 37.1538462,257.540265 37.1538462,258 C37.1538462,258.459735 37.1087738,258.907452 37.0096154,259.346154 L36.9134615,259.802885 L37.25,260.091346 L38.7884615,261.461538 L37.875,263.024038 L35.9278846,262.350962 L35.4951923,262.206731 L35.1586538,262.519231 C34.4945915,263.129207 33.7013223,263.591947 32.8269231,263.865385 L32.3942308,264.009615 L32.2980769,264.466346 L31.9134615,266.461538 L30.0865385,266.461538 L29.7019231,264.466346 L29.6057692,264.009615 L29.1730769,263.865385 C28.2986777,263.591947 27.5054085,263.129207 26.8413462,262.519231 L26.5048077,262.206731 L26.0721154,262.350962 L24.125,263.024038 L23.2115385,261.461538 L24.75,260.091346 L25.1105769,259.802885 L24.9903846,259.346154 C24.8912262,258.907452 24.8461538,258.459735 24.8461538,258 C24.8461538,257.540265 24.8912262,257.092548 24.9903846,256.653846 L25.1105769,256.197115 L24.75,255.908654 L23.2115385,254.538462 L24.125,252.975962 L26.0721154,253.649038 L26.5048077,253.793269 L26.8413462,253.480769 C27.5054085,252.870793 28.2986777,252.408053 29.1730769,252.134615 L29.6057692,251.990385 L29.7019231,251.533654 L30.0865385,249.538462 Z M31,254.153846 C28.8846154,254.153846 27.1538462,255.884615 27.1538462,258 C27.1538462,260.115385 28.8846154,261.846154 31,261.846154 C33.1153846,261.846154 34.8461538,260.115385 34.8461538,258 C34.8461538,255.884615 33.1153846,254.153846 31,254.153846 Z M31,255.692308 C32.2830531,255.692308 33.3076923,256.716947 33.3076923,258 C33.3076923,259.283053 32.2830531,260.307692 31,260.307692 C29.7169469,260.307692 28.6923077,259.283053 28.6923077,258 C28.6923077,256.716947 29.7169469,255.692308 31,255.692308 Z" id="settings"></path>
        </g>
    </g>
</svg>