<?xml version="1.0" encoding="UTF-8"?>
<svg width="23px" height="11px" viewBox="0 0 23 11" version="1.1" xmlns="http://www.w3.org/2000/svg" xmlns:xlink="http://www.w3.org/1999/xlink">
    <defs></defs>
    <g id="System-Stats-Calendar" stroke="none" stroke-width="1" fill="none" fill-rule="evenodd" transform="translate(-22.000000, -652.000000)">
        <g id="Group-5" fill="#7E849E" fill-rule="nonzero">
            <g id="crowd-icons---free-download--png-and-svg" transform="translate(22.000000, 652.000000)">
                <path d="M11.5,0 C9.39166667,0 7.66666667,1.65 7.66666667,3.66666667 C7.66666667,4.778125 8.20872377,5.76640607 9.03229167,6.43958333 C8.21471373,6.84921893 7.49895833,7.46796893 6.99583333,8.20416667 C6.7233071,7.82604167 6.3639321,7.47656287 5.965625,7.21875 C6.5346358,6.68593787 6.9,5.9497394 6.9,5.13333333 C6.9,3.52057273 5.51940123,2.2 3.83333333,2.2 C2.14726543,2.2 0.766666667,3.52057273 0.766666667,5.13333333 C0.766666667,5.9497394 1.13203163,6.68593787 1.70104167,7.21875 C0.6798179,7.88046893 0,9.0091144 0,10.2666667 L1.53333333,10.2666667 C1.53333333,9.05208333 2.56354167,8.06666667 3.83333333,8.06666667 C5.103125,8.06666667 6.13333333,9.05208333 6.13333333,10.2666667 L6.13333333,11 L7.66666667,11 C7.66666667,8.98046893 9.38867207,7.33333333 11.5,7.33333333 C13.6113279,7.33333333 15.3333333,8.98046893 15.3333333,11 L16.8666667,11 L16.8666667,10.2666667 C16.8666667,9.05208333 17.896875,8.06666667 19.1666667,8.06666667 C20.4364583,8.06666667 21.4666667,9.05208333 21.4666667,10.2666667 L23,10.2666667 C23,9.0091144 22.3201821,7.88046893 21.2989583,7.21875 C21.8679691,6.68593787 22.2333333,5.9497394 22.2333333,5.13333333 C22.2333333,3.52057273 20.8527346,2.2 19.1666667,2.2 C17.4805988,2.2 16.1,3.52057273 16.1,5.13333333 C16.1,5.9497394 16.465365,6.68593787 17.034375,7.21875 C16.6360679,7.47656287 16.2766929,7.82604167 16.0041667,8.20416667 C15.5010417,7.46796893 14.7852863,6.84921893 13.9677083,6.43958333 C14.7912762,5.76640607 15.3333333,4.778125 15.3333333,3.66666667 C15.3333333,1.65 13.6083333,0 11.5,0 Z M11.5,1.46666667 C12.7787762,1.46666667 13.8,2.4434894 13.8,3.66666667 C13.8,4.88984393 12.7787762,5.86666667 11.5,5.86666667 C10.2212238,5.86666667 9.2,4.88984393 9.2,3.66666667 C9.2,2.4434894 10.2212238,1.46666667 11.5,1.46666667 Z M3.83333333,3.66666667 C4.68984413,3.66666667 5.36666667,4.31406287 5.36666667,5.13333333 C5.36666667,5.95260453 4.68984413,6.6 3.83333333,6.6 C2.9768233,6.6 2.3,5.95260453 2.3,5.13333333 C2.3,4.31406287 2.9768233,3.66666667 3.83333333,3.66666667 Z M19.1666667,3.66666667 C20.0231775,3.66666667 20.7,4.31406287 20.7,5.13333333 C20.7,5.95260453 20.0231775,6.6 19.1666667,6.6 C18.3101566,6.6 17.6333333,5.95260453 17.6333333,5.13333333 C17.6333333,4.31406287 18.3101566,3.66666667 19.1666667,3.66666667 Z" id="Shape"></path>
            </g>
        </g>
    </g>
</svg>