<?xml version="1.0" encoding="UTF-8"?>
<svg width="15px" height="18px" viewBox="0 0 15 18" version="1.1" xmlns="http://www.w3.org/2000/svg" xmlns:xlink="http://www.w3.org/1999/xlink">
    <defs></defs>
    <g id="System-Stats-Calendar" stroke="none" stroke-width="1" fill="none" fill-rule="evenodd" transform="translate(-23.000000, -305.000000)">
        <g id="Group-5" fill="#7E849E" fill-rule="nonzero">
            <g id="page-icons---free-download--png-and-svg" transform="translate(23.000000, 305.000000)">
                <path d="M0,0 L0,18 L15,18 L15,0 L0,0 Z M1.5,1.5 L13.5,1.5 L13.5,16.5 L1.5,16.5 L1.5,1.5 Z M3,3.75 L3,5.25 L12,5.25 L12,3.75 L3,3.75 Z M3,6.75 L3,8.25 L4.5,8.25 L4.5,6.75 L3,6.75 Z M6,6.75 L6,8.25 L12,8.25 L12,6.75 L6,6.75 Z M3,9.75 L3,11.25 L4.5,11.25 L4.5,9.75 L3,9.75 Z M6,9.75 L6,11.25 L12,11.25 L12,9.75 L6,9.75 Z M3,12.75 L3,14.25 L4.5,14.25 L4.5,12.75 L3,12.75 Z M6,12.75 L6,14.25 L12,14.25 L12,12.75 L6,12.75 Z" id="Shape"></path>
            </g>
        </g>
    </g>
</svg>