<?xml version="1.0" encoding="UTF-8"?>
<svg width="18px" height="18px" viewBox="0 0 18 18" version="1.1" xmlns="http://www.w3.org/2000/svg" xmlns:xlink="http://www.w3.org/1999/xlink">
    <defs></defs>
    <g id="Users" stroke="none" stroke-width="1" fill="none" fill-rule="evenodd" transform="translate(-22.000000, -191.000000)">
        <g id="Group-5" fill="#7E849E" fill-rule="nonzero">
            <path d="M31,191 C26.0371097,191 22,195.03711 22,200 C22,204.962891 26.0371097,209 31,209 C35.962891,209 40,204.962891 40,200 C40,195.03711 35.962891,191 31,191 Z M31,192.5 C31.2519535,192.5 31.5039062,192.523438 31.75,192.546875 L31.75,194.820312 C31.5039062,194.785156 31.254883,194.75 31,194.75 C30.745117,194.75 30.4960938,194.785156 30.25,194.820312 L30.25,192.546875 C30.4960938,192.523438 30.7480472,192.5 31,192.5 Z M28.75,192.828125 L28.75,195.265625 C27.6601562,195.78711 26.7841795,196.660156 26.265625,197.75 L23.8515625,197.75 C24.5810545,195.40625 26.4121097,193.560547 28.75,192.828125 Z M33.25,192.828125 C35.5849608,193.560547 37.4394535,195.415039 38.171875,197.75 L35.734375,197.75 C35.2158205,196.660156 34.3398438,195.784179 33.25,195.265625 L33.25,192.828125 Z M31,196.25 C33.0800785,196.25 34.75,197.919922 34.75,200 C34.75,202.080078 33.0800785,203.75 31,203.75 C28.9199222,203.75 27.25,202.080078 27.25,200 C27.25,197.919922 28.9199222,196.25 31,196.25 Z M23.546875,199.25 L25.796875,199.25 C25.7617188,199.493164 25.75,199.748047 25.75,200 C25.75,200.254883 25.7851562,200.503906 25.8203125,200.75 L23.546875,200.75 C23.5234375,200.503906 23.5,200.251954 23.5,200 C23.5,199.748047 23.5234375,199.496094 23.546875,199.25 Z M36.1796875,199.25 L38.453125,199.25 C38.4765625,199.496094 38.5,199.748047 38.5,200 C38.5,200.251954 38.4765625,200.503906 38.453125,200.75 L36.1796875,200.75 C36.2148438,200.503906 36.25,200.254883 36.25,200 C36.25,199.745117 36.2148438,199.496094 36.1796875,199.25 Z M23.828125,202.25 L26.265625,202.25 C26.7841795,203.339844 27.6601562,204.215821 28.75,204.734375 L28.75,207.171875 C26.4150392,206.439454 24.5605472,204.584961 23.828125,202.25 Z M35.734375,202.25 L38.171875,202.25 C37.4394535,204.584961 35.5849608,206.439454 33.25,207.171875 L33.25,204.734375 C34.3398438,204.215821 35.2158205,203.339844 35.734375,202.25 Z M30.25,205.179688 C30.4960938,205.214844 30.745117,205.25 31,205.25 C31.254883,205.25 31.5039062,205.214844 31.75,205.179688 L31.75,207.453125 C31.5039062,207.476562 31.2519535,207.5 31,207.5 C30.7480472,207.5 30.4960938,207.476562 30.25,207.453125 L30.25,205.179688 Z" id="support"></path>
        </g>
    </g>
</svg>