<?xml version="1.0" encoding="UTF-8"?>
<svg width="20px" height="20px" viewBox="0 0 20 20" version="1.1" xmlns="http://www.w3.org/2000/svg" xmlns:xlink="http://www.w3.org/1999/xlink">
    <defs></defs>
    <g id="System-Stats-Calendar" stroke="none" stroke-width="1" fill="none" fill-rule="evenodd" transform="translate(-22.000000, -532.000000)">
        <g id="Group-5" fill="#7E849E" fill-rule="nonzero">
            <g id="investment-icons---free-download--png-and-svg-(2)" transform="translate(22.000000, 532.000000)">
                <path d="M10,0 C4.48617769,0 0,4.48617769 0,10 C0,15.5138223 4.48617769,20 10,20 C15.5138223,20 20,15.5138223 20,10 C20,4.48617769 15.5138223,0 10,0 Z M9.13461538,1.58653846 C9.16766846,1.58353385 9.19771615,1.58954308 9.23076923,1.58653846 L9.23076923,9.23076923 L1.58653846,9.23076923 C1.95012,5.19831769 5.11418308,1.99218769 9.13461538,1.58653846 Z M10.7692308,1.58653846 C15.0871392,1.97415846 18.4615385,5.57692308 18.4615385,10 C18.4615385,12.0612985 17.7343754,13.9423077 16.5144231,15.4086538 L10.7692308,9.66346154 L10.7692308,1.58653846 Z M1.58653846,10.7692308 L9.66346154,10.7692308 L15.4086538,16.5144231 C13.9423077,17.7343754 12.0612985,18.4615385 10,18.4615385 C5.57692308,18.4615385 1.97415846,15.0871392 1.58653846,10.7692308 Z" id="Shape"></path>
            </g>
        </g>
    </g>
</svg>