<?xml version="1.0" encoding="UTF-8"?>
<svg width="20px" height="18px" viewBox="0 0 20 18" version="1.1" xmlns="http://www.w3.org/2000/svg" xmlns:xlink="http://www.w3.org/1999/xlink">
    <defs></defs>
    <g id="System-Stats-Calendar" stroke="none" stroke-width="1" fill="none" fill-rule="evenodd" transform="translate(-22.000000, -590.000000)">
        <g id="Group-5" fill="#7E849E" fill-rule="nonzero">
            <g id="system-stats-icons---free-download--png-and-svg" transform="translate(22.000000, 590.000000)">
                <path d="M13.8461538,0 L13.8461538,18 L20,18 L20,0 L13.8461538,0 Z M15.3846154,1.5 L18.4615385,1.5 L18.4615385,16.5 L15.3846154,16.5 L15.3846154,1.5 Z M0,4.5 L0,18 L6.15384615,18 L6.15384615,4.5 L0,4.5 Z M1.53846154,6 L4.61538462,6 L4.61538462,16.5 L1.53846154,16.5 L1.53846154,6 Z M6.92307692,9 L6.92307692,18 L13.0769231,18 L13.0769231,9 L6.92307692,9 Z M8.46153846,10.5 L11.5384615,10.5 L11.5384615,16.5 L8.46153846,16.5 L8.46153846,10.5 Z" id="Shape"></path>
            </g>
        </g>
    </g>
</svg>