<?xml version="1.0" encoding="UTF-8"?>
<svg width="15px" height="17px" viewBox="0 0 15 17" version="1.1" xmlns="http://www.w3.org/2000/svg" xmlns:xlink="http://www.w3.org/1999/xlink">
    <defs></defs>
    <g id="System-Stats-Calendar" stroke="none" stroke-width="1" fill="none" fill-rule="evenodd" transform="translate(-24.000000, -136.000000)">
        <g id="Group-5" fill="#7E849E" fill-rule="nonzero">
            <g id="user-icons---free-download--png-and-svg-(11)" transform="translate(24.000000, 136.000000)">
                <path d="M7.5,0 C4.60839825,0 2.25,2.42986486 2.25,5.40909091 C2.25,7.27148418 3.17285175,8.9256035 4.5703125,9.90056818 C1.895508,11.0838068 0,13.8185373 0,17 L1.5,17 C1.5,13.57706 4.17773475,10.8181818 7.5,10.8181818 C10.822266,10.8181818 13.5,13.57706 13.5,17 L15,17 C15,13.8185373 13.104492,11.0838068 10.4296875,9.90056818 C11.8271483,8.9256035 12.75,7.27148418 12.75,5.40909091 C12.75,2.42986486 10.3916017,0 7.5,0 Z M7.5,1.54545455 C9.5800785,1.54545455 11.25,3.2659805 11.25,5.40909091 C11.25,7.55220209 9.5800785,9.27272727 7.5,9.27272727 C5.41992225,9.27272727 3.75,7.55220209 3.75,5.40909091 C3.75,3.2659805 5.41992225,1.54545455 7.5,1.54545455 Z" id="Shape"></path>
            </g>
        </g>
    </g>
</svg>