<?xml version="1.0" encoding="UTF-8"?>
<svg width="12px" height="12px" viewBox="0 0 12 12" version="1.1" xmlns="http://www.w3.org/2000/svg" xmlns:xlink="http://www.w3.org/1999/xlink">
    <defs></defs>
    <g id="Client-Widgets" stroke="none" stroke-width="1" fill="none" fill-rule="evenodd" transform="translate(-252.000000, -182.000000)">
        <g id="window-copy-5" transform="translate(66.000000, 133.000000)" fill="#BDC2CF" fill-rule="nonzero">
            <g id="search-icons---free-download--png-and-svg-(8)" transform="translate(186.000000, 49.000000)">
                <g id="gear-icons---free-download--png-and-svg">
                    <path d="M8.7,6 C8.7,7.5 7.5,8.7 6,8.7 C4.5,8.7 3.3,7.5 3.3,6 C3.3,4.5 4.5,3.3 6,3.3 C7.5,3.3 8.7,4.5 8.7,6 Z M12,5.4 L10.0804686,5.0390628 C9.9609378,4.6195314 9.7804686,4.2 9.6,3.8390628 L10.6804686,2.2195314 L9.8390628,1.3804686 L8.1609378,2.4 C7.8,2.1609378 7.3804686,1.9804686 6.9609378,1.9195314 L6.6,0 L5.4,0 L5.0390628,1.9195314 C4.5609378,2.0390628 4.2,2.2195314 3.8390628,2.4 L2.1609378,1.3195314 L1.3195314,2.1609378 L2.4,3.8390628 C2.1609378,4.2 1.9804686,4.6195314 1.9195314,5.0390628 L0,5.4 L0,6.6 L1.9195314,6.9609378 C2.0390628,7.3804686 2.2195314,7.8 2.4,8.1609378 L1.3195314,9.7804686 L2.1609378,10.6195314 L3.8390628,9.6 C4.2,9.8390628 4.6195314,10.0195314 5.0390628,10.0804686 L5.4,12 L6.6,12 L6.9609378,10.0804686 C7.3804686,9.9609378 7.8,9.7804686 8.1609378,9.6 L9.7804686,10.6804686 L10.6195314,9.8390628 L9.6,8.1609378 C9.8390628,7.8 10.0195314,7.3804686 10.0804686,6.9609378 L12,6.6 L12,5.4 Z" id="Shape"></path>
                </g>
            </g>
        </g>
    </g>
</svg>