<svg xmlns="http://www.w3.org/2000/svg" width="28" height="20.961" viewBox="0 0 28 20.961">
    <path id="ico-credit-card-buy" d="M-437.816 295.961a1.737 1.737 0 0 1-1.273-.528 1.735 1.735 0 0 1-.528-1.273v-9.466l1.441 3.607v5.859a.347.347 0 0 0 .107.253.343.343 0 0 0 .253.107h18.016a.346.346 0 0 0 .253-.106.345.345 0 0 0 .107-.254v-6.845h-12.092l1.727-4.324h10.365v-2.521a.343.343 0 0 0-.107-.253.343.343 0 0 0-.253-.107h-6.767l1.166-.832.042-.03a2.9 2.9 0 0 0 .345-.266 2.177 2.177 0 0 0 .275-.31h4.935a1.733 1.733 0 0 1 1.272.529 1.735 1.735 0 0 1 .53 1.272v13.687a1.737 1.737 0 0 1-.53 1.273 1.732 1.732 0 0 1-1.272.528zm11.009-2.882v-1.441h2.882v1.441zm-5.6 0v-1.441h4.324v1.441zm-2.641-1.445a1.379 1.379 0 0 1-.551-.114 1.384 1.384 0 0 1-.51-.382 1.5 1.5 0 0 1-.257-.455l-.015-.039-3.581-8.963-4.274-3.048a.675.675 0 0 0-.059-.04 2.088 2.088 0 0 1-.252-.194 1.388 1.388 0 0 1-.444-1.016 1.386 1.386 0 0 1 1.374-1.383h17.129a1.387 1.387 0 0 1 1.385 1.384 1.392 1.392 0 0 1-.444 1.016 2.166 2.166 0 0 1-.253.194l-.059.04-4.273 3.048-3.6 9a1.5 1.5 0 0 1-.257.455 1.391 1.391 0 0 1-.511.382 1.386 1.386 0 0 1-.55.113zm.592-6.866v4.556l2.545-6.371zm-1.184 4.556v-4.556l-2.545-1.815zm1.184-6.009l2.947-2.1-2.947-3.13zm-4.131-2.1l2.947 2.1v-5.232zm8.05-.693l4-2.849.078-.054c.042-.03.1-.066.117-.086a.2.2 0 0 0 .064-.148.2.2 0 0 0-.2-.2h-7.195zm-13.276-3.136a.2.2 0 0 0 .065.148c.021.019.074.055.116.085l.077.053 4 2.85 3.142-3.338h-7.195a.2.2 0 0 0-.209.201z" class="cls-1" transform="translate(445.5 -275.5)"/>
</svg>
