<?xml version="1.0" encoding="UTF-8"?>
<svg width="13px" height="13px" viewBox="0 0 13 13" version="1.1" xmlns="http://www.w3.org/2000/svg" xmlns:xlink="http://www.w3.org/1999/xlink">
    <!-- Generator: sketchtool 49.2 (51160) - http://www.bohemiancoding.com/sketch -->
    <desc>Created with sketchtool.</desc>
    <defs></defs>
    <g id="Page-2" stroke="none" stroke-width="1" fill="none" fill-rule="evenodd">
        <g id="Client-Widgets" transform="translate(-1224.000000, -2551.000000)" fill="#BDC2CF" fill-rule="nonzero">
            <g id="window-copy-11" transform="translate(767.000000, 2489.000000)">
                <g id="Input" transform="translate(22.000000, 52.000000)">
                    <path d="M441.5,10 C437.917969,10 435,12.917969 435,16.5 C435,20.082031 437.917969,23 441.5,23 C445.082031,23 448,20.082031 448,16.5 C448,12.917969 445.082031,10 441.5,10 Z M441.5,11 C444.542969,11 447,13.457031 447,16.5 C447,19.542969 444.542969,22 441.5,22 C438.457031,22 436,19.542969 436,16.5 C436,13.457031 438.457031,11 441.5,11 Z M441.558594,13 C440.347656,13.070313 439.359375,14.085938 439.359375,15.320313 L440.359375,15.320313 C440.359375,14.507813 441.0625,13.871094 441.921875,14.019531 C442.535156,14.125 443.019531,14.726563 443,15.359375 C442.984375,15.914063 442.660156,16.265625 442.183594,16.476563 C441.886719,16.609375 441.605469,16.734375 441.367188,16.984375 C441.128906,17.234375 441,17.605469 441,18 L442,18 C442,17.773438 442.03125,17.738281 442.09375,17.671875 C442.152344,17.609375 442.316406,17.511719 442.585938,17.390625 C443.332031,17.066406 443.972656,16.351563 444,15.390625 C444.035156,14.253906 443.21875,13.226563 442.089844,13.03125 C441.910156,13.003906 441.730469,12.992188 441.558594,13 Z M441,19 L441,20 L442,20 L442,19 L441,19 Z" id="help"></path>
                </g>
            </g>
        </g>
    </g>
</svg>