<?xml version="1.0" encoding="UTF-8"?>
<svg width="78px" height="78px" viewBox="0 0 78 78" version="1.1" xmlns="http://www.w3.org/2000/svg" xmlns:xlink="http://www.w3.org/1999/xlink">
    <defs></defs>
    <g id="Client-Dialogs" stroke="none" stroke-width="1" fill="none" fill-rule="evenodd" transform="translate(-1029.000000, -2984.000000)">
        <g id="window-copy" transform="translate(904.000000, 2865.000000)" fill="#E6EAEE" fill-rule="nonzero">
            <path d="M176,119 C161.164064,119 149,131.164064 149,146 C149,147.558593 149.257814,148.929689 149.46875,150.3125 L125.84375,173.84375 L125,174.78125 L125,197 L146,197 L146,188 L155,188 L155,179 L164,179 L164,170.09375 C167.539064,171.828125 171.664064,173 176,173 C190.835939,173 203,160.835939 203,146 C203,131.164064 190.835939,119 176,119 Z M176,125 C187.566407,125 197,134.433593 197,146 C197,157.566407 187.566407,167 176,167 C172.367189,167 168.628907,165.933593 165.78125,164.375 L165.03125,164 L158,164 L158,173 L149,173 L149,182 L140,182 L140,191 L131,191 L131,177.3125 L154.71875,153.5 L155.84375,152.46875 L155.5625,150.875 C155.257814,149.070314 155,147.464843 155,146 C155,134.433593 164.433593,125 176,125 Z M182,134 C178.683593,134 176,136.683593 176,140 C176,143.316407 178.683593,146 182,146 C185.316407,146 188,143.316407 188,140 C188,136.683593 185.316407,134 182,134 Z" id="key"></path>
        </g>
    </g>
</svg>