<?xml version="1.0" encoding="UTF-8"?>
<svg width="16px" height="16px" viewBox="0 0 16 16" version="1.1" xmlns="http://www.w3.org/2000/svg" xmlns:xlink="http://www.w3.org/1999/xlink">
    <defs></defs>
    <g id="UI-Kit" stroke="none" stroke-width="1" fill="none" fill-rule="evenodd" transform="translate(-576.000000, -1381.000000)">
        <g id="05---Forms" transform="translate(100.000000, 1259.000000)">
            <g id="Content">
                <g id="Input-4" transform="translate(258.000000, 90.000000)">
                    <g id="Input" transform="translate(1.000000, 24.000000)">
                        <g id="Cross" transform="translate(213.000000, 4.000000)">
                            <path stroke="#FFFFFF" d="M12,4 C7.58133333,4 4,7.58133333 4,12 C4,16.4186667 7.58133333,20 12,20 C16.4177778,20 20,16.4186667 20,12 C20,7.58133333 16.4177778,4 12,4" fill="#DF2B41" transform="translate(12.000000, 12.000000) rotate(-315.000000) translate(-12.000000, -12.000000) "></path>
                            <path d="M15.271106,11.2711687 L12.8712388,11.2711687 L12.8712388,8.87130152 C12.8712388,8.87130152 12.8712388,8.08317554 12.0769064,8.07134579 C11.2825739,8.05951605 11.2713274,8.87130152 11.2713274,8.87130152 L11.2713274,11.2711687 L8.8714602,11.2711687 C8.8714602,11.2711687 8.05020395,11.2711687 8.07150448,12.0869114 C8.092805,12.9026541 8.8714602,12.8710802 8.8714602,12.8710802 L11.2713274,12.8710802 L11.2713274,15.2709473 C11.2713274,15.2709473 11.2947117,16.0593697 12.0829753,16.0709031 C12.8712388,16.0824364 12.8712388,15.2709473 12.8712388,15.2709473 L12.8712388,12.8710802 L15.271106,12.8710802 C15.271106,12.8710802 16.0648751,12.8710802 16.0710618,12.0835795 C16.0772485,11.2960788 15.271106,11.2711687 15.271106,11.2711687 Z" id="Shape" fill="#FFFFFF" transform="translate(12.071097, 12.071121) rotate(-45.000000) translate(-12.071097, -12.071121) "></path>
                        </g>
                    </g>
                </g>
            </g>
        </g>
    </g>
</svg>