<?xml version="1.0" encoding="UTF-8"?>
<svg width="20px" height="20px" viewBox="0 0 20 20" version="1.1" xmlns="http://www.w3.org/2000/svg" xmlns:xlink="http://www.w3.org/1999/xlink">
    <!-- Generator: sketchtool 51.2 (57519) - http://www.bohemiancoding.com/sketch -->
    <desc>Created with sketchtool.</desc>
    <defs></defs>
    <g id="Mobile" stroke="none" stroke-width="1" fill="none" fill-rule="evenodd">
        <g id="Sidebar-Icons" transform="translate(-140.000000, -109.000000)" fill="#696E84" fill-rule="nonzero">
            <path d="M150,109 C144.486178,109 140,113.486178 140,119 C140,124.513822 144.486178,129 150,129 C155.513822,129 160,124.513822 160,119 C160,113.486178 155.513822,109 150,109 Z M149.134615,110.586538 C149.167668,110.583534 149.197716,110.589543 149.230769,110.586538 L149.230769,118.230769 L141.586538,118.230769 C141.95012,114.198318 145.114183,110.992188 149.134615,110.586538 Z M150.769231,110.586538 C155.087139,110.974158 158.461538,114.576923 158.461538,119 C158.461538,121.061298 157.734375,122.942308 156.514423,124.408654 L150.769231,118.663462 L150.769231,110.586538 Z M141.586538,119.769231 L149.663462,119.769231 L155.408654,125.514423 C153.942308,126.734375 152.061298,127.461538 150,127.461538 C145.576923,127.461538 141.974158,124.087139 141.586538,119.769231 Z" id="balance"></path>
        </g>
    </g>
</svg>
