<?xml version="1.0" encoding="UTF-8"?>
<svg width="20px" height="18px" viewBox="0 0 20 18" version="1.1" xmlns="http://www.w3.org/2000/svg" xmlns:xlink="http://www.w3.org/1999/xlink">
    <!-- Generator: sketchtool 51.2 (57519) - http://www.bohemiancoding.com/sketch -->
    <desc>Created with sketchtool.</desc>
    <defs></defs>
    <g id="Mobile" stroke="none" stroke-width="1" fill="none" fill-rule="evenodd">
        <g id="Sidebar-Icons" transform="translate(-140.000000, -50.000000)" fill="#696E84" fill-rule="nonzero">
            <path d="M153.846154,50 L153.846154,68 L160,68 L160,50 L153.846154,50 Z M155.384615,51.5 L158.461538,51.5 L158.461538,66.5 L155.384615,66.5 L155.384615,51.5 Z M140,54.5 L140,68 L146.153846,68 L146.153846,54.5 L140,54.5 Z M141.538462,56 L144.615385,56 L144.615385,66.5 L141.538462,66.5 L141.538462,56 Z M146.923077,59 L146.923077,68 L153.076923,68 L153.076923,59 L146.923077,59 Z M148.461538,60.5 L151.538462,60.5 L151.538462,66.5 L148.461538,66.5 L148.461538,60.5 Z" id="exchange"></path>
        </g>
    </g>
</svg>
