<?xml version="1.0"?>
<svg xmlns="http://www.w3.org/2000/svg" viewBox="0 0 50 50" width="100px" height="100px">
    <path style="line-height:normal;text-indent:0;text-align:start;text-decoration-line:none;text-decoration-style:solid;text-decoration-color:#000;text-transform:none;block-progression:tb;isolation:auto;mix-blend-mode:normal" d="M 24.984375 1.9863281 A 1.0001 1.0001 0 0 0 24.814453 2.0039062 C 12.20946 2.1043866 2 12.371563 2 25 C 2 37.690705 12.309295 48 25 48 C 37.690705 48 48 37.690705 48 25 C 48 18.864301 45.586057 13.289708 41.662109 9.1640625 A 1.0001 1.0001 0 0 0 41.480469 8.9726562 C 40.444695 7.9081813 39.308004 6.9427407 38.083984 6.09375 A 1.0001 1.0001 0 0 0 37.720703 5.8476562 C 34.12415 3.4530882 29.818277 2.0412087 25.1875 2.0039062 C 25.186192 2.0038958 25.184902 2.0039167 25.183594 2.0039062 A 1.0001 1.0001 0 0 0 24.984375 1.9863281 z M 24 4.0253906 L 24 16.058594 C 19.509852 16.558924 16 20.379641 16 25 C 16 29.958718 20.041282 34 25 34 C 27.119489 34 29.069041 33.258088 30.609375 32.025391 L 39.113281 40.527344 C 35.384623 43.917838 30.444353 46 25 46 C 13.390176 46 4 36.609824 4 25 C 4 13.725479 12.855795 4.546312 24 4.0253906 z M 26 4.0253906 C 26.218406 4.0355997 26.433792 4.0554549 26.650391 4.0722656 L 26 4.7226562 L 26 4.0253906 z M 29.121094 4.4296875 C 29.97922 4.6003714 30.821885 4.8123911 31.638672 5.0839844 L 26 10.722656 L 26 7.546875 A 1.0001 1.0001 0 0 0 26.070312 7.4804688 L 29.121094 4.4296875 z M 33.675781 5.875 C 34.392645 6.2001596 35.084895 6.566192 35.755859 6.9667969 L 26.572266 16.150391 C 26.382624 16.116702 26.193485 16.080153 26 16.058594 L 26 13.550781 L 33.675781 5.875 z M 37.453125 8.0996094 C 38.142913 8.6083467 38.794511 9.1643766 39.416016 9.7519531 L 30.742188 18.089844 C 30.132925 17.582916 29.457219 17.158013 28.728516 16.824219 L 37.453125 8.0996094 z M 40.800781 11.193359 C 41.06159 11.491596 41.324536 11.786811 41.568359 12.099609 A 1 1 0 0 0 41 13 A 1 1 0 0 0 42 14 A 1 1 0 0 0 42.705078 13.708984 C 43.193098 14.473184 43.618354 15.277914 44.005859 16.105469 A 1 1 0 0 0 44.279297 16.693359 C 44.901578 18.137644 45.376024 19.660889 45.662109 21.251953 A 1 1 0 0 0 45 21 A 1 1 0 0 0 44 22 A 1 1 0 0 0 45 23 A 1 1 0 0 0 45.849609 22.525391 C 45.944777 23.337616 46 24.161924 46 25 C 46 25.838739 45.944924 26.663697 45.849609 27.476562 A 1 1 0 0 0 45 27 A 1 1 0 0 0 44 28 A 1 1 0 0 0 45 29 A 1 1 0 0 0 45.660156 28.75 C 45.375716 30.331281 44.917399 31.850633 44.300781 33.287109 A 1 1 0 0 0 44.005859 33.898438 C 43.619086 34.724144 43.184104 35.52056 42.697266 36.283203 A 1 1 0 0 0 42 36 A 1 1 0 0 0 41 37 A 1 1 0 0 0 41.558594 37.896484 C 41.231075 38.316611 40.885278 38.719647 40.527344 39.113281 L 32.025391 30.609375 C 32.422992 30.112547 32.764232 29.570367 33.050781 28.996094 A 1 1 0 0 0 34 28 A 1 1 0 0 0 33.695312 27.28125 C 33.88743 26.551158 34 25.789155 34 25 C 34 24.209702 33.889983 23.445737 33.697266 22.714844 A 1 1 0 0 0 34 22 A 1 1 0 0 0 33.058594 21.001953 C 32.79778 20.479437 32.486243 19.986298 32.132812 19.527344 L 40.800781 11.193359 z M 39 15 A 1 1 0 0 0 38 16 A 1 1 0 0 0 39 17 A 1 1 0 0 0 40 16 A 1 1 0 0 0 39 15 z M 36 18 A 1 1 0 0 0 35 19 A 1 1 0 0 0 36 20 A 1 1 0 0 0 37 19 A 1 1 0 0 0 36 18 z M 42 18 A 1 1 0 0 0 41 19 A 1 1 0 0 0 42 20 A 1 1 0 0 0 43 19 A 1 1 0 0 0 42 18 z M 24.882812 18.005859 A 1.0001 1.0001 0 0 0 25.125 18.005859 C 28.944008 18.072891 32 21.164423 32 25 C 32 28.877838 28.877838 32 25 32 C 21.122162 32 18 28.877838 18 25 C 18 21.161788 21.06013 18.06877 24.882812 18.005859 z M 39 21 A 1 1 0 0 0 38 22 A 1 1 0 0 0 39 23 A 1 1 0 0 0 40 22 A 1 1 0 0 0 39 21 z M 36 24 A 1 1 0 0 0 35 25 A 1 1 0 0 0 36 26 A 1 1 0 0 0 37 25 A 1 1 0 0 0 36 24 z M 42 24 A 1 1 0 0 0 41 25 A 1 1 0 0 0 42 26 A 1 1 0 0 0 43 25 A 1 1 0 0 0 42 24 z M 39 27 A 1 1 0 0 0 38 28 A 1 1 0 0 0 39 29 A 1 1 0 0 0 40 28 A 1 1 0 0 0 39 27 z M 36 30 A 1 1 0 0 0 35 31 A 1 1 0 0 0 36 32 A 1 1 0 0 0 37 31 A 1 1 0 0 0 36 30 z M 42 30 A 1 1 0 0 0 41 31 A 1 1 0 0 0 42 32 A 1 1 0 0 0 43 31 A 1 1 0 0 0 42 30 z M 39 33 A 1 1 0 0 0 38 34 A 1 1 0 0 0 39 35 A 1 1 0 0 0 40 34 A 1 1 0 0 0 39 33 z"/>
</svg>
