<svg width="60" height="60" viewBox="0 0 60 60" fill="none" xmlns="http://www.w3.org/2000/svg">
<path fill-rule="evenodd" clip-rule="evenodd" d="M30 0C13.4 0 0 13.4 0 30C0 46.6 13.4 60 30 60C46.6 60 60 46.6 60 30C60 13.4 46.6 0 30 0ZM25.1 14C25.1 11.5 27.3 9.5 30 9.5C32.7 9.5 34.9 11.5 34.9 14V33.3C34.9 35.8 32.7 37.8 30 37.8C27.3 37.8 25.1 35.8 25.1 33.3V14ZM30 50C27.3 50 25.1 47.8 25.1 45.1C25.1 42.4 27.3 40.2 30 40.2C32.7 40.2 34.9 42.4 34.9 45.1C34.9 47.9 32.7 50 30 50Z" fill="currentcolor"/>
</svg>
