<!-- Generated by IcoMoon.io -->
<svg version="1.1" xmlns="http://www.w3.org/2000/svg" width="32" height="32" viewBox="0 0 32 32">
<title>indicators</title>
<path d="M0.375 27.813v-12.75c0-0.313 0.25-0.563 0.5-0.563h1.063c0.313 0 0.563 0.25 0.563 0.563v12.75c0 0.313-0.25 0.563-0.563 0.563h-1.063c-0.25 0-0.5-0.25-0.5-0.563zM9.25 10.25h-1.063c-0.313 0-0.563 0.25-0.563 0.5v17.063c0 0.313 0.25 0.563 0.563 0.563h1.063c0.313 0 0.5-0.25 0.5-0.563v-17.063c0-0.25-0.188-0.5-0.5-0.5zM16.5 19.813h-1c-0.313 0-0.563 0.25-0.563 0.563v7.438c0 0.313 0.25 0.563 0.563 0.563h1c0.313 0 0.563-0.25 0.563-0.563v-7.438c0-0.313-0.25-0.563-0.563-0.563zM23.813 11.313h-1.063c-0.313 0-0.5 0.25-0.5 0.5v16c0 0.313 0.188 0.563 0.5 0.563h1.063c0.313 0 0.563-0.25 0.563-0.563v-16c0-0.25-0.25-0.5-0.563-0.5zM31.125 17.688h-1.063c-0.313 0-0.563 0.25-0.563 0.563v9.563c0 0.313 0.25 0.563 0.563 0.563h1.063c0.25 0 0.5-0.25 0.5-0.563v-9.563c0-0.313-0.25-0.563-0.5-0.563zM2.125 11.563c1 0 1.813-0.813 1.813-1.813 0-0.188-0.063-0.313-0.063-0.5l3.75-2.688c0.25 0.125 0.5 0.188 0.75 0.188 0.563 0 1-0.25 1.313-0.625l3.563 2.063c0 0.125 0 0.188 0 0.313 0 1 0.813 1.813 1.75 1.813 1 0 1.75-0.75 1.813-1.688l4.75-1.375c0.375 0.438 0.875 0.688 1.5 0.688 0.375 0 0.75-0.125 1-0.313l4.063 2.75c-0.063 0.125-0.063 0.25-0.063 0.438 0 1 0.813 1.75 1.813 1.75 0.938 0 1.75-0.75 1.75-1.75s-0.813-1.813-1.75-1.813c-0.438 0-0.75 0.125-1.063 0.375l-4.063-2.75c0.063-0.125 0.063-0.313 0.063-0.438 0-1-0.813-1.813-1.75-1.813-1 0-1.75 0.75-1.813 1.688l-4.813 1.438c-0.313-0.5-0.813-0.75-1.438-0.75-0.438 0-0.813 0.125-1.125 0.438l-3.688-2.188c0 0 0-0.063 0-0.063 0-1-0.813-1.813-1.813-1.813s-1.75 0.813-1.75 1.813c0 0.25 0.063 0.5 0.125 0.75l-3.563 2.563c-0.313-0.188-0.688-0.313-1.063-0.313-0.938 0-1.75 0.813-1.75 1.813s0.813 1.813 1.75 1.813z"></path>
</svg>
