<?xml version="1.0" encoding="UTF-8"?>
<svg width="15px" height="15px" viewBox="0 0 15 15" version="1.1" xmlns="http://www.w3.org/2000/svg" xmlns:xlink="http://www.w3.org/1999/xlink">
    <defs></defs>
    <g id="Page-3" stroke="none" stroke-width="1" fill="none" fill-rule="evenodd">
        <g id="Night-Mode-UI-Kit-" transform="translate(-705.000000, -198.000000)" fill="#BDC2CF" fill-rule="nonzero">
            <g id="01---Colour-Palette" transform="translate(93.000000, 115.000000)">
                <g id="Headline-/-Divider">
                    <path d="M618.923077,83 L618.923077,85.8846154 L620.076923,85.8846154 L620.076923,83 L618.923077,83 Z M614.596154,84.7848558 L613.784856,85.5961538 L615.822115,87.6514423 L616.651442,86.8221154 L614.596154,84.7848558 Z M624.403846,84.7848558 L622.348558,86.8221154 L623.177885,87.6514423 L625.215144,85.5961538 L624.403846,84.7848558 Z M619.5,86.4615385 C617.275691,86.4615385 615.461538,88.275691 615.461538,90.5 C615.461538,92.724309 617.275691,94.5384615 619.5,94.5384615 C621.724309,94.5384615 623.538462,92.724309 623.538462,90.5 C623.538462,88.275691 621.724309,86.4615385 619.5,86.4615385 Z M619.5,87.6153846 C621.10006,87.6153846 622.384615,88.8999402 622.384615,90.5 C622.384615,92.1000604 621.10006,93.3846154 619.5,93.3846154 C617.89994,93.3846154 616.615385,92.1000604 616.615385,90.5 C616.615385,88.8999402 617.89994,87.6153846 619.5,87.6153846 Z M612,89.9230769 L612,91.0769231 L614.884615,91.0769231 L614.884615,89.9230769 L612,89.9230769 Z M624.115385,89.9230769 L624.115385,91.0769231 L627,91.0769231 L627,89.9230769 L624.115385,89.9230769 Z M615.822115,93.3485577 L613.784856,95.4038462 L614.596154,96.2151442 L616.651442,94.1778846 L615.822115,93.3485577 Z M623.177885,93.3485577 L622.348558,94.1778846 L624.403846,96.2151442 L625.215144,95.4038462 L623.177885,93.3485577 Z M618.923077,95.1153846 L618.923077,98 L620.076923,98 L620.076923,95.1153846 L618.923077,95.1153846 Z" id="sun"></path>
                </g>
            </g>
        </g>
    </g>
</svg>