<?xml version="1.0" encoding="UTF-8"?>
<svg width="14px" height="14px" viewBox="0 0 14 14" version="1.1" xmlns="http://www.w3.org/2000/svg" xmlns:xlink="http://www.w3.org/1999/xlink">
    <defs></defs>
    <g id="Page-3" stroke="none" stroke-width="1" fill="none" fill-rule="evenodd">
        <g id="Night-Mode-UI-Kit-" transform="translate(-676.000000, -199.000000)" fill="#9996AA" fill-rule="nonzero">
            <g id="01---Colour-Palette" transform="translate(93.000000, 115.000000)">
                <g id="Headline-/-Divider">
                    <path d="M590.541014,84 L589.433885,84.042038 C585.861825,84.1707791 583,87.121319 583,90.7470935 C583,94.4543168 586.000216,97.473168 589.684556,97.473168 C593.287949,97.473168 596.220275,94.5935674 596.348222,90.9993213 L596.39,89.9063342 L595.408206,90.3687518 C594.885975,90.6183524 594.306299,90.7470935 593.695289,90.7470935 C591.473196,90.7470935 589.684556,88.9473433 589.684556,86.7114488 C589.684556,86.0966439 589.833391,85.5343858 590.081451,85.0089112 L590.541014,84 Z M588.598315,85.5974427 C588.514758,85.97053 588.347644,86.3120881 588.347644,86.7114488 C588.347644,89.6751254 590.749907,92.0923084 593.695289,92.0923084 C594.100018,92.0923084 594.44469,91.9267838 594.823308,91.8400806 C594.314132,94.2782826 592.264376,96.1279531 589.684556,96.1279531 C586.723507,96.1279531 584.336911,93.7265347 584.336911,90.7470935 C584.336911,88.1565042 586.180387,86.115035 588.598315,85.5974427 Z" id="moon"></path>
                </g>
            </g>
        </g>
    </g>
</svg>