<?xml version="1.0" encoding="UTF-8"?>
<svg width="52px" height="40px" viewBox="0 0 52 40" version="1.1" xmlns="http://www.w3.org/2000/svg" xmlns:xlink="http://www.w3.org/1999/xlink">
    <defs></defs>
    <g id="Client-Pages-2" stroke="none" stroke-width="1" fill="none" fill-rule="evenodd" transform="translate(-1140.000000, -334.000000)">
        <g id="window-copy" transform="translate(825.000000, 99.000000)" fill="#7E849E" fill-rule="nonzero">
            <g id="Group-2" transform="translate(0.000000, 70.000000)">
                <path d="M332,165 L331.375,165.8125 L329,169 L315,169 L315,205 L367,205 L367,169 L353,169 L350.625,165.8125 L350,165 L332,165 Z M334,169 L348,169 L350.375,172.1875 L351,173 L363,173 L363,201 L319,201 L319,173 L331,173 L331.625,172.1875 L334,169 Z M325,175 C323.898438,175 323,175.898438 323,177 C323,178.101562 323.898438,179 325,179 C326.101562,179 327,178.101562 327,177 C327,175.898438 326.101562,175 325,175 Z M341,175 C334.398438,175 329,180.398438 329,187 C329,193.601562 334.398438,199 341,199 C347.601562,199 353,193.601562 353,187 C353,180.398438 347.601562,175 341,175 Z M341,179 C345.445312,179 349,182.554688 349,187 C349,191.445312 345.445312,195 341,195 C336.554688,195 333,191.445312 333,187 C333,182.554688 336.554688,179 341,179 Z" id="Shape"></path>
            </g>
        </g>
    </g>
</svg>
