<?xml version="1.0" encoding="UTF-8"?>
<svg width="16px" height="16px" viewBox="0 0 16 16" version="1.1" xmlns="http://www.w3.org/2000/svg" xmlns:xlink="http://www.w3.org/1999/xlink">
    <defs></defs>
    <g id="UI-Kit" stroke="none" stroke-width="1" fill="none" fill-rule="evenodd" transform="translate(-319.000000, -1381.000000)">
        <g id="05---Forms" transform="translate(100.000000, 1259.000000)">
            <g id="Content">
                <g id="Input-5" transform="translate(0.000000, 90.000000)">
                    <g id="Input" transform="translate(1.000000, 24.000000)">
                        <g id="Check" transform="translate(218.000000, 8.000000)">
                            <path d="M8.0003,0.0003 C3.58163333,0.0003 0.0003,3.58163333 0.0003,8.0003 C0.0003,12.4180778 3.58163333,16.0003 8.0003,16.0003 C12.4180778,16.0003 16.0003,12.4180778 16.0003,8.0003 C16.0003,3.58163333 12.4180778,0.0003 8.0003,0.0003" fill="#39B54A"></path>
                            <path d="M11.7922078,5.85714286 C11.7922078,5.384 11.4082078,5 10.9350649,5 C10.6980649,5 10.4833506,5.09642857 10.3286364,5.25157143 L6.64935065,8.93085714 L5.46357143,7.74507792 C5.30885714,7.58993506 5.09414286,7.49350649 4.85714286,7.49350649 C4.384,7.49350649 4,7.87750649 4,8.35064935 C4,8.58764935 4.09642857,8.80193506 4.25157143,8.95707792 L6.04292208,10.7484286 C6.19763636,10.9035714 6.41235065,11 6.64935065,11 C6.88635065,11 7.10106494,10.9035714 7.25577922,10.7484286 L11.5406364,6.46357143 C11.6957792,6.30842857 11.7922078,6.09414286 11.7922078,5.85714286 Z" id="Shape" fill="#FFFFFF"></path>
                        </g>
                    </g>
                </g>
            </g>
        </g>
    </g>
</svg>