<?xml version="1.0" encoding="UTF-8"?>
<svg width="13px" height="13px" viewBox="0 0 13 13" version="1.1" xmlns="http://www.w3.org/2000/svg" xmlns:xlink="http://www.w3.org/1999/xlink">
    <defs></defs>
    <g id="Client-Trade-Page-Example" stroke="none" stroke-width="1" fill="none" fill-rule="evenodd" transform="translate(-1378.000000, -19.000000)">
        <g id="Group-13" fill="#0098D8" fill-rule="nonzero">
            <g id="Group">
                <g id="add-widget" transform="translate(1378.000000, 19.000000)">
                    <path d="M6.5,0 C2.9160155,0 0,2.9160155 0,6.5 C0,10.0839845 2.9160155,13 6.5,13 C10.0839845,13 13,10.0839845 13,6.5 C13,2.9160155 10.0839845,0 6.5,0 Z M6.5,1 C9.542969,1 12,3.4570315 12,6.5 C12,9.542969 9.542969,12 6.5,12 C3.4570315,12 1,9.542969 1,6.5 C1,3.4570315 3.4570315,1 6.5,1 Z M6,3.5 L6,6 L3.5,6 L3.5,7 L6,7 L6,9.5 L7,9.5 L7,7 L9.5,7 L9.5,6 L7,6 L7,3.5 L6,3.5 Z" id="Shape"></path>
                </g>
            </g>
        </g>
    </g>
</svg>